<svg id="Layer_1" data-name="Layer 1" xmlns="http://www.w3.org/2000/svg" viewBox="0 0 150 150"><defs><style>.cls-1{fill:#7c0c2b;}.cls-2{fill:#fff;}</style></defs><rect class="cls-1" width="150" height="150"/><path class="cls-2" d="M25.56405,80.51748H14.20412l-1.99059,4.63059a7.1679,7.1679,0,0,0-.73581,2.55306,1.67128,1.67128,0,0,0,.11914.6384,1.24951,1.24951,0,0,0,.48679.541,3.22112,3.22112,0,0,0,1.0385.41111,11.55592,11.55592,0,0,0,1.75284.24876v.80074H5.63554v-.80074a5.11305,5.11305,0,0,0,2.38024-.84369,6.53426,6.53426,0,0,0,1.15764-1.569,28.03732,28.03732,0,0,0,1.28727-2.65046L20.78211,60.32974h.75727L31.7524,84.737A21.333,21.333,0,0,0,32.91,87.17114a5.83686,5.83686,0,0,0,1.09271,1.42814,3.13283,3.13283,0,0,0,1.22233.70334,6.71631,6.71631,0,0,0,1.56875.23776v.80074H25.21762v-.80074a7.346,7.346,0,0,0,1.44987-.19482,2.812,2.812,0,0,0,.91963-.38911,1.39518,1.39518,0,0,0,.476-.541,1.57741,1.57741,0,0,0,.14062-.67086,3.80753,3.80753,0,0,0-.20556-1.22233q-.22742-.74706-.66012-1.7853Zm-.60593-1.601-4.97676-11.8577L14.875,78.91652Z"/><path class="cls-2" d="M42.62213,85.53771a2.36414,2.36414,0,0,1,1.6879.69234,2.49222,2.49222,0,0,1,.51925.76775,2.31621,2.31621,0,0,1,.19456.94162,2.236,2.236,0,0,1-.19456.93009,2.50553,2.50553,0,0,1-1.27679,1.27679,2.31887,2.31887,0,0,1-1.86072,0,2.50635,2.50635,0,0,1-1.27652-1.27679,2.23618,2.23618,0,0,1-.19482-.93009,2.29306,2.29306,0,0,1,.19482-.9521,2.51733,2.51733,0,0,1,.51925-.75727,2.36289,2.36289,0,0,1,1.68763-.69234Z"/><path class="cls-2" d="M85.524,85.53771a2.36414,2.36414,0,0,1,1.6879.69234,2.49239,2.49239,0,0,1,.51925.76775,2.31621,2.31621,0,0,1,.19456.94162,2.236,2.236,0,0,1-.19456.93009,2.50553,2.50553,0,0,1-1.27679,1.27679,2.31887,2.31887,0,0,1-1.86072,0,2.50641,2.50641,0,0,1-1.27653-1.27679,2.23617,2.23617,0,0,1-.19481-.93009,2.29305,2.29305,0,0,1,.19481-.9521,2.51736,2.51736,0,0,1,.51926-.75727,2.36289,2.36289,0,0,1,1.68763-.69234Z"/><path class="cls-2" d="M125.20815,85.53771a2.36414,2.36414,0,0,1,1.6879.69234,2.49239,2.49239,0,0,1,.51925.76775,2.31621,2.31621,0,0,1,.19456.94162,2.236,2.236,0,0,1-.19456.93009,2.50553,2.50553,0,0,1-1.27679,1.27679,2.31887,2.31887,0,0,1-1.86072,0,2.50641,2.50641,0,0,1-1.27653-1.27679,2.23633,2.23633,0,0,1-.19481-.93009,2.29321,2.29321,0,0,1,.19481-.9521,2.51754,2.51754,0,0,1,.51926-.75727,2.36289,2.36289,0,0,1,1.68763-.69234Z"/><path class="cls-2" d="M46.83193,60.52456h7.96265L72.73223,82.53008V65.6092q0-2.70467-.60592-3.37527a3.24918,3.24918,0,0,0-2.53159-.90915H68.578v-.80022H78.7907v.80022H77.7522a2.981,2.981,0,0,0-2.63973,1.12544,6.48361,6.48361,0,0,0-.47605,3.159V90.34112h-.779L54.51336,66.71265V84.78043q0,2.70468.58419,3.37528a3.20631,3.20631,0,0,0,2.53158.90862h1.03851v.80074h-10.213v-.80074h1.017a3.00592,3.00592,0,0,0,2.66146-1.12491,6.49027,6.49027,0,0,0,.47605-3.159V64.37588q-.64926-.75727-1.082-1.21185a6.77448,6.77448,0,0,0-.82222-.74628,3.732,3.732,0,0,0-.84369-.47605q-.45444-.18381-1.12517-.4221a6.89728,6.89728,0,0,0-1.90419-.19482Z"/><path class="cls-2" d="M117.687,59.65888l.67086,9.975H117.687a16.854,16.854,0,0,0-1.6337-3.82985,10.08891,10.08891,0,0,0-2.19615-2.61852,8.153,8.153,0,0,0-2.7264-1.49308,10.64842,10.64842,0,0,0-3.24566-.47552,9.54049,9.54049,0,0,0-5.21478,1.43861A9.79,9.79,0,0,0,99.057,67.08029a16.55766,16.55766,0,0,0-1.12518,3.73244,25.66287,25.66287,0,0,0-.38964,4.68505A17.23284,17.23284,0,0,0,98.819,82.4002a9.97751,9.97751,0,0,0,1.6337,2.618,9.4315,9.4315,0,0,0,2.23935,1.8822,10.34521,10.34521,0,0,0,2.73714,1.14691,12.07581,12.07581,0,0,0,3.08331.38963,11.78694,11.78694,0,0,0,3.13751-.36764,7.80156,7.80156,0,0,0,2.402-1.12544,11.79507,11.79507,0,0,0,2.088-1.90418q1.0059-1.14613,2.21788-2.68294l.67061.43258a19.393,19.393,0,0,1-2.38,3.3758,12.80072,12.80072,0,0,1-2.7696,2.35824,11.37932,11.37932,0,0,1-3.23492,1.37419,15.19458,15.19458,0,0,1-3.75418.44358q-7.31391,0-11.295-5.40934a15.468,15.468,0,0,1-2.9859-9.47747,18.08326,18.08326,0,0,1,.71407-5.07416A15.35231,15.35231,0,0,1,97.89935,63.218a14.25219,14.25219,0,0,1,2.87775-1.94713A14.68734,14.68734,0,0,1,104.03349,60.07a14.945,14.945,0,0,1,3.50542-.41111,13.81636,13.81636,0,0,1,6.275,1.558,3.21167,3.21167,0,0,0,1.29826.47552,1.43428,1.43428,0,0,0,1.15765-.57293,3.45939,3.45939,0,0,0,.65986-1.46061Z"/><path class="cls-2" d="M144.36446,89.54038v.80074H131.79294v-.80074h1.03877a3.09666,3.09666,0,0,0,2.63973-1.06q.51926-.67086.51925-3.33233V66.19366q0-1.03929-.0432-1.6879a5.38374,5.38374,0,0,0-.16235-1.071,1.553,1.553,0,0,0-.34617-.66039,2.59648,2.59648,0,0,0-.61666-.454,4.10237,4.10237,0,0,0-1.9906-.51951h-1.03877v-.80022h12.57152v.80022h-1.06024a3.07074,3.07074,0,0,0-2.618,1.0605q-.54125.67086-.541,3.33233V85.14807q0,1.03851.0432,1.6879a5.12189,5.12189,0,0,0,.16235,1.06,1.55485,1.55485,0,0,0,.3569.65987,2.61786,2.61786,0,0,0,.62766.46557,3.97913,3.97913,0,0,0,1.96887.519Z"/></svg>